<?xml version="1.0" encoding="utf-8"?>
<svg version="1.1" baseProfile="tiny"
	 xmlns="http://www.w3.org/2000/svg" xmlns:xlink="http://www.w3.org/1999/xlink" x="0px" y="0px" viewBox="0 0 200 200"
	 xml:space="preserve">
<path fill="#959697" d="M16.4,122.3v-13.9l30.5-22.1L55.4,98l-23.6,17.2l24.6,16.6l-8.1,12.1L16.4,122.3z M183.6,107.7v13.9
	l-30.5,22.1l-8.6-11.8l23.6-17.2l-24.6-16.6l8.1-12.1L183.6,107.7L183.6,107.7z"/>
<path fill="#FFAE00" d="M86.7,177.5c4.2,0,6.3-1.5,7-3.3c6.6-17.2,18.7-102.6,23.5-111.9c4.6-8.9,15.3-8.6,32.1,0.9
	c0.9,0.5,2,0.2,2.5-0.7c0-0.1,0.1-0.1,0.1-0.2l8.5-20.5c0.2-0.5,0-1-0.5-1.2c-14.4-7.3-31.2-11.4-49-11.4c-11.4,0-22.3,1.7-32.4,4.8
	c-11.6,3.5-19.5,9.5-24.8,17c-0.5,0.7-0.8,2.5,1.1,2.5c5,0,19-2.5,24.1-3.3c5.1-0.8,13.7-2.3,15.5,4.2c2.4,8.6-11.5,61-15.9,74.5
	c-4.5,13.6-8.2,27.6-10,35.3c-0.5,2,0,6.4,2.4,8.3C73.1,174.3,80.7,177.5,86.7,177.5z"/>
<path fill="#D8D8D8" d="M152.7,34.3l13.4,5.7l-11.7,27.7L141,62L152.7,34.3z"/>
<path fill="#42434D" d="M86.7,177.5c4.2,0,6.3-1.5,7-3.3c3-7.7,8.7-35.7,17-83.8l-20.3-6.3c-6.2,24.8-10.2,39.7-11.8,44.7
	c-4.5,13.6-8.2,27.6-10,35.3c-0.5,2,0,6.4,2.4,8.3C73.1,174.3,80.7,177.5,86.7,177.5L86.7,177.5z"/>
<path fill="#D8D8D8" d="M16.4,114.3v-13.9l30.5-22.1L55.4,90l-23.6,17.2l24.6,16.6l-8.1,12.1L16.4,114.3z M183.6,99.7v13.9
	l-30.5,22.1l-8.6-11.8l23.6-17.2l-24.6-16.6l8.1-12.1L183.6,99.7L183.6,99.7z"/>
</svg>
