<?xml version="1.0" encoding="utf-8"?>
<svg version="1.1" baseProfile="tiny"
	 xmlns="http://www.w3.org/2000/svg" xmlns:xlink="http://www.w3.org/1999/xlink" x="0px" y="0px" viewBox="0 0 200 200"
	 xml:space="preserve">
<path fill="#828282" d="M142.3,12.1c-3.7-1.8-8.2-0.2-10,3.5c-1.8,3.7-0.2,8.2,3.5,10l0,0c28.5,13.8,46.6,42.7,46.8,74.4
	c0,45.5-37,82.5-82.5,82.5s-82.5-37-82.5-82.5s37-82.5,82.5-82.5c4.1,0,7.5-3.4,7.5-7.5s-3.4-7.5-7.5-7.5C46.2,2.5,2.5,46.2,2.5,100
	s43.7,97.5,97.5,97.5s97.5-43.7,97.5-97.5C197.4,62.6,175.9,28.5,142.3,12.1z"/>
<path fill="#E60012" d="M142.9,64.7c0-4.1-3.4-7.5-7.5-7.5c-2,0-3.9,0.8-5.3,2.2l-30,30L70,59.3c-3-2.9-7.7-2.8-10.6,0.2
	c-2.8,2.9-2.8,7.5,0,10.4L89.4,100l-30,30.1c-2.9,2.9-3,7.6-0.1,10.6c1.4,1.4,3.3,2.2,5.4,2.2c2,0,3.9-0.8,5.3-2.2l30.1-30
	l30.1,30.1c2.9,2.9,7.6,3,10.6,0.1c1.4-1.4,2.2-3.3,2.2-5.4c0-2-0.8-3.9-2.2-5.3l-30-30.1l30.1-30.1
	C142.1,68.5,142.9,66.6,142.9,64.7z"/>
</svg>
