<?xml version="1.0" standalone="no"?><!DOCTYPE svg PUBLIC "-//W3C//DTD SVG 1.1//EN" "http://www.w3.org/Graphics/SVG/1.1/DTD/svg11.dtd"><svg class="icon" width="200px" height="200.00px" viewBox="0 0 1024 1024" version="1.1" xmlns="http://www.w3.org/2000/svg"><path d="M866.133333 919.466667h-405.333333c-29.866667 0-53.333333-23.466667-53.333333-53.333334v-618.666666c0-29.866667 23.466667-53.333333 53.333333-53.333334h405.333333c29.866667 0 53.333333 23.466667 53.333334 53.333334v618.666666c0 29.866667-23.466667 53.333333-53.333334 53.333334z" fill="#69C0FF" /><path d="M770.133333 428.8h-213.333333c-12.8 0-21.333333-8.533333-21.333333-21.333333s8.533333-21.333333 21.333333-21.333334h213.333333c12.8 0 21.333333 8.533333 21.333334 21.333334s-10.666667 21.333333-21.333334 21.333333zM770.133333 556.8h-213.333333c-12.8 0-21.333333-8.533333-21.333333-21.333333s8.533333-21.333333 21.333333-21.333334h213.333333c12.8 0 21.333333 8.533333 21.333334 21.333334s-10.666667 21.333333-21.333334 21.333333zM770.133333 684.8h-213.333333c-12.8 0-21.333333-8.533333-21.333333-21.333333s8.533333-21.333333 21.333333-21.333334h213.333333c12.8 0 21.333333 8.533333 21.333334 21.333334s-10.666667 21.333333-21.333334 21.333333z" fill="#FFFFFF" /><path d="M567.466667 834.133333h-405.333334c-29.866667 0-53.333333-23.466667-53.333333-53.333333v-618.666667c0-29.866667 23.466667-53.333333 53.333333-53.333333h405.333334c29.866667 0 53.333333 23.466667 53.333333 53.333333v618.666667c0 29.866667-23.466667 53.333333-53.333333 53.333333z" fill="#1890FF" /><path d="M471.466667 343.466667h-213.333334c-12.8 0-21.333333-8.533333-21.333333-21.333334s8.533333-21.333333 21.333333-21.333333h213.333334c12.8 0 21.333333 8.533333 21.333333 21.333333s-10.666667 21.333333-21.333333 21.333334zM471.466667 471.466667h-213.333334c-12.8 0-21.333333-8.533333-21.333333-21.333334s8.533333-21.333333 21.333333-21.333333h213.333334c12.8 0 21.333333 8.533333 21.333333 21.333333s-10.666667 21.333333-21.333333 21.333334zM471.466667 599.466667h-213.333334c-12.8 0-21.333333-8.533333-21.333333-21.333334s8.533333-21.333333 21.333333-21.333333h213.333334c12.8 0 21.333333 8.533333 21.333333 21.333333s-10.666667 21.333333-21.333333 21.333334z" fill="#FFFFFF" /></svg>