<?xml version="1.0" standalone="no"?><!DOCTYPE svg PUBLIC "-//W3C//DTD SVG 1.1//EN" "http://www.w3.org/Graphics/SVG/1.1/DTD/svg11.dtd"><svg class="icon" width="200px" height="200.00px" viewBox="0 0 1024 1024" version="1.1" xmlns="http://www.w3.org/2000/svg"><path d="M708.266667 633.6c76.8 0 138.666667 64 138.666666 142.933333S785.066667 917.333333 708.266667 917.333333s-138.666667-64-138.666667-142.933333 61.866667-140.8 138.666667-140.8z m0 213.333333c38.4 0 70.4-32 70.4-72.533333S746.666667 704 708.266667 704c-38.4 0-70.4 32-70.4 70.4 0 40.533333 32 72.533333 70.4 72.533333zM315.733333 633.6c76.8 0 138.666667 64 138.666667 142.933333S392.533333 917.333333 315.733333 917.333333s-138.666667-64-138.666666-142.933333 61.866667-140.8 138.666666-140.8z m0 213.333333c38.4 0 70.4-32 70.4-72.533333S354.133333 704 315.733333 704c-38.4 0-70.4 32-70.4 70.4 2.133333 40.533333 32 72.533333 70.4 72.533333z" fill="#0179C0" /><path d="M810.666667 106.666667L512 469.333333 213.333333 106.666667s-93.866667 108.8-4.266666 226.133333C296.533333 450.133333 512 684.8 512 684.8S727.466667 448 814.933333 332.8C902.4 215.466667 810.666667 106.666667 810.666667 106.666667zM512 608c-25.6 0-44.8-21.333333-44.8-46.933333 0-25.6 21.333333-46.933333 44.8-46.933334 25.6 0 44.8 21.333333 44.8 46.933334 0 25.6-19.2 46.933333-44.8 46.933333z" fill="#293A4E" /></svg>