<?xml version="1.0" encoding="utf-8"?>
<svg version="1.1" baseProfile="tiny"
	 xmlns="http://www.w3.org/2000/svg" xmlns:xlink="http://www.w3.org/1999/xlink" x="0px" y="0px" viewBox="0 0 200 200"
	 xml:space="preserve">
<path fill="#0179C0" d="M138.3,123.7c15,0,27.1,12.5,27.1,27.9s-12.1,27.5-27.1,27.5s-27.1-12.5-27.1-27.9S123.3,123.7,138.3,123.7z
	 M138.3,165.4c7.5,0,13.8-6.3,13.8-14.2s-6.3-13.8-13.8-13.8s-13.8,6.3-13.8,13.8C124.6,159.2,130.8,165.4,138.3,165.4L138.3,165.4z
	 M61.7,123.7c15,0,27.1,12.5,27.1,27.9s-12.1,27.5-27.1,27.5s-27.1-12.5-27.1-27.9S46.7,123.7,61.7,123.7z M61.7,165.4
	c7.5,0,13.7-6.3,13.7-14.2s-6.3-13.8-13.7-13.8s-13.8,6.3-13.8,13.8C48.3,159.2,54.2,165.4,61.7,165.4L61.7,165.4z"/>
<path fill="#4D6477" d="M158.3,20.8L100,91.7L41.7,20.8c0,0-18.3,21.3-0.8,44.2c17.1,22.9,59.2,68.8,59.2,68.8s42.1-46.3,59.2-68.8
	C176.3,42.1,158.3,20.8,158.3,20.8z M100,118.8c-5,0-8.8-4.2-8.8-9.2s4.2-9.2,8.8-9.2c5,0,8.8,4.2,8.8,9.2
	C108.8,114.6,105,118.8,100,118.8z"/>
</svg>
