<?xml version="1.0" encoding="utf-8"?>
<svg version="1.1" baseProfile="tiny"
	 xmlns="http://www.w3.org/2000/svg" xmlns:xlink="http://www.w3.org/1999/xlink" x="0px" y="0px" viewBox="0 0 200 200"
	 xml:space="preserve">
<path fill="#666666" d="M183.3,183.3V131H16.7v52.3H183.3 M187.7,200H12.3c-6.7,0.1-12.2-5.3-12.3-12c0-0.1,0-0.2,0-0.3v-61.1
	c-0.1-6.7,5.3-12.2,12-12.3c0.1,0,0.2,0,0.3,0h175.4c6.7-0.1,12.2,5.3,12.3,12c0,0.1,0,0.2,0,0.3v61.1c0.1,6.7-5.3,12.2-12,12.3
	C187.9,200,187.8,200,187.7,200L187.7,200z"/>
<path fill="#0088E9" d="M185.7,71.4V14.3H14.3v57.1H185.7 M187.7,85.7H12.3C5.6,85.8,0.1,80.4,0,73.7c0-0.1,0-0.2,0-0.3V12.3
	C-0.1,5.6,5.3,0.1,12,0c0.1,0,0.2,0,0.3,0h175.4c6.7-0.1,12.2,5.3,12.3,12c0,0.1,0,0.2,0,0.3v61.1c0.1,6.7-5.3,12.2-12,12.3
	C187.9,85.7,187.8,85.7,187.7,85.7L187.7,85.7z"/>
<path fill="#90C840" d="M44.7,50.3h110.6V35.6H44.7V50.3z"/>
</svg>
