<?xml version="1.0" standalone="no"?><!DOCTYPE svg PUBLIC "-//W3C//DTD SVG 1.1//EN" "http://www.w3.org/Graphics/SVG/1.1/DTD/svg11.dtd"><svg t="1592986667465" class="icon" viewBox="0 0 1024 1024" version="1.1" xmlns="http://www.w3.org/2000/svg" p-id="5146" xmlns:xlink="http://www.w3.org/1999/xlink" width="200" height="200"><defs><style type="text/css"></style></defs><path d="M938.419202 85.580798v267.700562H85.580798V85.580798h852.838404M961.093294 0.004389H62.906707A62.170896 62.170896 0 0 0 0.004389 62.906707v313.048745A62.170896 62.170896 0 0 0 62.906707 438.85777h898.186587a62.170896 62.170896 0 0 0 62.902318-62.902318V62.906707a62.170896 62.170896 0 0 0-62.902318-62.902318z" fill="#666666" p-id="5147"></path><path d="M950.853381 658.28446v292.568921H73.146619V658.28446h877.706762m10.239913-73.14223H62.906707a62.170896 62.170896 0 0 0-62.902318 62.902318v313.048745a62.170896 62.170896 0 0 0 62.902318 62.902318h898.186587a62.170896 62.170896 0 0 0 62.902318-62.902318V648.044548a62.170896 62.170896 0 0 0-62.902318-62.902318z" fill="#0088E9" p-id="5148"></path><path d="M228.939569 766.534961h566.120862v75.336497H228.939569z" fill="#90C840" p-id="5149"></path></svg>