<?xml version="1.0" encoding="utf-8"?>
<svg version="1.1" baseProfile="tiny"
	 xmlns="http://www.w3.org/2000/svg" xmlns:xlink="http://www.w3.org/1999/xlink" x="0px" y="0px" viewBox="0 0 200 200"
	 xml:space="preserve">
<path fill="#EE8182" d="M76.6,76.7h41.2c4.6,0,7,2.3,7,7v89.4c0,4.6-2.3,7-7,7H76.6c-4.6,0-7-2.3-7-7V83.7
	C69.6,79,71.9,76.7,76.6,76.7z"/>
<path fill="#EE8182" d="M91.9,22.5L44.1,82.3c-2.3,3-1.8,7.3,1.3,9.7c1.2,0.9,2.6,1.4,4.1,1.4H145c3.8-0.1,6.8-3.2,6.7-7
	c0-1.5-0.5-2.9-1.4-4l-47.8-59.8c-2.4-2.9-6.7-3.4-9.7-1C92.5,21.9,92.2,22.2,91.9,22.5z"/>
</svg>
