<?xml version="1.0" encoding="utf-8"?>
<svg version="1.1" baseProfile="tiny"
	 xmlns="http://www.w3.org/2000/svg" xmlns:xlink="http://www.w3.org/1999/xlink" x="0px" y="0px" viewBox="0 0 200 200"
	 xml:space="preserve">
<path fill="#7CBBBB" d="M120.6,123.3H79.5c-4.6,0-7-2.3-7-7V26.9c0-4.6,2.3-7,7-7h41.2c4.6,0,7,2.3,7,7v89.4
	C127.6,121,125.3,123.3,120.6,123.3z"/>
<path fill="#7CBBBB" d="M105.3,177.5l47.8-59.8c2.3-3,1.8-7.3-1.3-9.7c-1.2-0.9-2.6-1.4-4-1.4H52.2c-3.8,0.1-6.8,3.2-6.7,7
	c0,1.5,0.5,2.9,1.4,4l47.8,59.8c2.4,2.9,6.8,3.3,9.7,0.9C104.8,178.1,105.1,177.8,105.3,177.5z"/>
</svg>
