<?xml version="1.0" standalone="no"?><!DOCTYPE svg PUBLIC "-//W3C//DTD SVG 1.1//EN" "http://www.w3.org/Graphics/SVG/1.1/DTD/svg11.dtd">
<svg class="icon" width="200px" height="200.00px" viewBox="0 0 200 200" version="1.1" xmlns="http://www.w3.org/2000/svg">
<path class="st0" d="M15.6,45.7V22.4c0-7.2,5.4-13.1,12.1-13.1h48.9c6.6,0,16.3,3.9,21.1,8.5l-1.8-2c5.4,4.6,15.1,8.5,21.8,8.5h48.9
	c6.6,0,12.1,5.9,12.1,13.1v8.2" fill="#C4DFFB" />
<path class="st1" d="M23.2,43.1h153.6c7.3,0,13.2,5.9,13.2,13.1v108.3c0,7.2-5.9,13.1-13.2,13.1H23.2c-7.3,0-13.2-5.9-13.2-13.1
	V56.2C10,49,15.9,43.1,23.2,43.1z" fill="#74B3F8" />
<path class="st2" d="M98.6,112H71.9v-8.4h26.7V76.8h8.4v26.7h26.7v8.4H107v26.7h-8.4V112z" fill="#FFFFFF" />
</svg>
