<?xml version="1.0" encoding="utf-8"?>
<svg version="1.1" baseProfile="tiny"
	 xmlns="http://www.w3.org/2000/svg" xmlns:xlink="http://www.w3.org/1999/xlink" x="0px" y="0px" viewBox="0 0 200 200"
	 xml:space="preserve">
<path fill="#FFA000" d="M158.3,37.1H91.7L75,17.1H33.3c-9.2,0-16.7,9-16.7,20V157c0,11,7.5,20,16.7,20h129.2c7.1,0,12.5-6.5,12.5-15
	V57C175,46,167.5,37.1,158.3,37.1z"/>
<path fill="#FFCA28" d="M175.8,67h-112c-7.9,0-15,7-16.3,16.5l-14.2,93.4h132.1c7.9,0,15-7,16.3-16.5l10.4-69.9
	C194.2,78.6,186.3,67,175.8,67z"/>
</svg>
