<?xml version="1.0" standalone="no"?><!DOCTYPE svg PUBLIC "-//W3C//DTD SVG 1.1//EN" "http://www.w3.org/Graphics/SVG/1.1/DTD/svg11.dtd"><svg t="1592986648988" class="icon" viewBox="0 0 1024 1024" version="1.1" xmlns="http://www.w3.org/2000/svg" p-id="4870" xmlns:xlink="http://www.w3.org/1999/xlink" width="200" height="200"><defs><style type="text/css"></style></defs><path d="M448 64h64c38.4 0 64 25.6 64 64v64H384V128c0-38.4 25.6-64 64-64z m12.8 44.8c-12.8 0-32 12.8-32 32v19.2h102.4v-19.2c0-19.2-12.8-32-32-32h-38.4z" fill="#666666" p-id="4871"></path><path d="M256 192c0 70.4 57.6 128 128 128h192c70.4 0 128-57.6 128-128h64c38.4 0 64 25.6 64 64v147.2H460.8V896H192c-38.4 0-64-25.6-64-64V256c0-38.4 25.6-64 64-64h64z" fill="#EAC282" p-id="4872"></path><path d="M960 960H512V448h300.8L960 582.4V960z m-384-64h320V614.4L787.2 512H576v384zM320 192h320v64H320z" fill="#666666" p-id="4873"></path><path d="M729.6 486.4h57.6V640h-57.6z" fill="#666666" p-id="4874"></path><path d="M729.6 614.4h198.4v51.2h-198.4z" fill="#666666" p-id="4875"></path></svg>