<?xml version="1.0" encoding="utf-8"?>
<svg version="1.1" baseProfile="tiny"
	 xmlns="http://www.w3.org/2000/svg" xmlns:xlink="http://www.w3.org/1999/xlink" x="0px" y="0px" viewBox="0 0 200 198.6"
	 xml:space="preserve">
<path fill="#4988FD" d="M185.1,67.3v103.3c0,7.9-6.3,14.1-14.1,14.1H29.3c-7.9,0-14.3-6.3-14.3-14.1V29c0-7.9,6.3-14.1,14.3-14.1
	H134c3.5,0,6.8,0.9,9.6,2.7c1.3,0.8,2.5,1.8,3.7,2.8l31.4,31.3C182.7,55.9,185.1,61.5,185.1,67.3z"/>
<path fill="#DFECFD" d="M32.7,184.8V99.5h136v85.2"/>
<path fill="#C5DCFA" d="M143.6,17.6v60.5H32.7V14.9H134C137.4,14.8,140.8,15.8,143.6,17.6L143.6,17.6z"/>
<path fill="#4988FD" d="M151.3,127.9H52c-1.8,0-3.2-1.5-3.2-3.2c0-1.8,1.5-3.2,3.2-3.2h99.2c1.8,0,3.2,1.5,3.2,3.2
	C154.5,126.5,152.9,127.9,151.3,127.9z M151.3,146H52c-1.8,0-3.2-1.5-3.2-3.2s1.5-3.2,3.2-3.2h99.2c1.8,0,3.2,1.5,3.2,3.2
	S152.9,146,151.3,146z M104.1,164.1H51.9c-1.8,0-3.2-1.5-3.2-3.2s1.5-3.2,3.2-3.2h52.1c1.8,0,3.2,1.5,3.2,3.2
	S105.8,164.1,104.1,164.1z"/>
<path fill="#2767F4" d="M125.1,64.5h-9.1c-1.2,0-2.1-0.9-2.1-2.1V32.1c0-1.2,0.9-2.1,2.1-2.1h9.1c1.2,0,2.1,0.9,2.1,2.1v30.2
	C127.3,63.6,126.4,64.5,125.1,64.5z"/>
</svg>
