<?xml version="1.0" standalone="no"?><!DOCTYPE svg PUBLIC "-//W3C//DTD SVG 1.1//EN" "http://www.w3.org/Graphics/SVG/1.1/DTD/svg11.dtd"><svg class="icon" width="200px" height="200.00px" viewBox="0 0 1024 1024" version="1.1" xmlns="http://www.w3.org/2000/svg"><path d="M467 935c-30.3 0-55-24.7-55-55v-37.2l-16.6-5.9c-10.4-3.7-20.7-8-30.7-12.7l-15.9-7.5-26.4 26.4c-10.3 10.3-24.1 16-38.9 16s-28.6-5.7-38.9-16L181 779.5c-10.3-10.3-16-24.1-16-38.9s5.7-28.6 16-38.9l26.4-26.4-7.5-15.9c-4.7-10-9-20.3-12.7-30.7l-5.9-16.6H144c-30.3 0-55-24.7-55-55v-90c0-30.3 24.7-55 55-55h37.2l5.9-16.6c3.7-10.4 8-20.7 12.7-30.7l7.5-15.9-26.4-26.4c-10.3-10.3-16-24.1-16-38.9s5.7-28.6 16-38.9l63.6-63.6c10.3-10.3 24.1-16 38.9-16s28.6 5.7 38.9 16l26.4 26.4 15.9-7.5c10-4.7 20.3-9 30.7-12.7l16.6-5.9V144c0-30.3 24.7-55 55-55h90c30.3 0 55 24.7 55 55v37.2l16.6 5.9c10.4 3.7 20.7 8 30.7 12.7l15.9 7.5 26.4-26.4c10.3-10.3 24.1-16 38.9-16s28.6 5.7 38.9 16l63.6 63.6c10.3 10.3 16 24.1 16 38.9s-5.7 28.6-16 38.9l-26.4 26.4 7.5 15.9c4.7 10 9 20.3 12.7 30.7l5.9 16.6H880c30.3 0 55 24.7 55 55v90c0 30.3-24.7 55-55 55h-37.2l-5.9 16.6c-3.7 10.4-8 20.7-12.7 30.7l-7.5 15.9 26.4 26.4c10.3 10.3 16 24.1 16 38.9 0 14.8-5.7 28.6-16 38.9l-63.6 63.6c-10.3 10.3-24.1 16-38.9 16-14.8 0-28.6-5.7-38.9-16l-26.4-26.4-15.9 7.5c-10 4.7-20.3 9-30.7 12.7l-16.6 5.9V880c0 30.3-24.7 55-55 55H467z" fill="#E5E5E5" /><path d="M557 114c7.9 0 15.4 3.1 21.1 8.9 5.7 5.7 8.9 13.2 8.9 21.1V198.9l33.1 11.9c9.6 3.5 19.2 7.4 28.4 11.8l31.8 15 24.9-24.9 13.9-13.9c5.6-5.6 13.1-8.7 21.2-8.7s15.6 3.1 21.2 8.7l63.6 63.6c5.6 5.6 8.7 13.1 8.7 21.2s-3.1 15.6-8.7 21.2l-13.9 13.9-24.9 24.9 15 31.8c4.4 9.2 8.3 18.8 11.8 28.4l11.9 33.1h55c7.9 0 15.4 3.1 21.1 8.9 5.7 5.7 8.9 13.2 8.9 21.1v90c0 7.9-3.1 15.4-8.9 21.1-5.7 5.7-13.2 8.9-21.1 8.9H825.1L813.2 620c-3.5 9.6-7.4 19.2-11.8 28.4l-15 31.8 24.9 24.9 13.9 13.9c5.6 5.6 8.7 13.1 8.7 21.2s-3.1 15.6-8.7 21.2L761.6 825c-5.6 5.6-13.1 8.7-21.2 8.7s-15.6-3.1-21.2-8.7l-13.9-13.9-24.9-24.9-31.8 15c-9.2 4.4-18.8 8.3-28.4 11.8L587 825.2V880c0 7.9-3.1 15.4-8.9 21.1-5.7 5.7-13.2 8.9-21.1 8.9h-90c-7.9 0-15.4-3.1-21.1-8.9-5.7-5.7-8.9-13.2-8.9-21.1V825.1l-33.1-11.9c-9.6-3.5-19.2-7.4-28.4-11.8l-31.8-15-24.9 24.9-13.9 13.9c-5.6 5.6-13.1 8.7-21.2 8.7s-15.6-3.1-21.2-8.7l-63.6-63.6c-5.6-5.6-8.7-13.1-8.7-21.2s3.1-15.6 8.7-21.2l13.9-13.9 24.9-24.9-15-31.8c-4.4-9.2-8.3-18.8-11.8-28.4L198.8 587H144c-7.9 0-15.4-3.1-21.1-8.9-5.7-5.7-8.9-13.2-8.9-21.1v-90c0-7.9 3.1-15.4 8.9-21.1 5.7-5.7 13.2-8.9 21.1-8.9H198.9l11.9-33.1c3.5-9.6 7.4-19.2 11.8-28.4l15-31.8-24.9-24.9-13.9-13.9c-5.6-5.6-8.7-13.1-8.7-21.2s3.1-15.6 8.7-21.2l63.6-63.6c5.6-5.6 13.1-8.7 21.2-8.7s15.6 3.1 21.2 8.7l13.9 13.9 24.9 24.9 31.8-15c9.2-4.4 18.8-8.3 28.4-11.8l33.1-11.9v-55c0-7.9 3.1-15.4 8.9-21.1 5.7-5.7 13.2-8.9 21.1-8.9H557m0-50h-90c-44 0-80 36-80 80v19.7c-11.2 4-22.2 8.6-32.9 13.6l-13.9-13.9c-15.6-15.6-36.1-23.3-56.6-23.3s-41 7.8-56.6 23.3L163.4 227c-31.1 31.1-31.1 82 0 113.1l13.9 13.9c-5.1 10.7-9.6 21.7-13.6 32.9H144c-44 0-80 36-80 80v90c0 44 36 80 80 80h19.7c4 11.2 8.6 22.2 13.6 32.9l-13.9 13.9c-31.1 31.1-31.1 82 0 113.1l63.6 63.6c15.6 15.6 36.1 23.3 56.6 23.3s41-7.8 56.6-23.3l13.9-13.9c10.7 5.1 21.7 9.6 32.9 13.6V880c0 44 36 80 80 80h90c44 0 80-36 80-80v-19.7c11.2-4 22.2-8.6 32.9-13.6l13.9 13.9c15.6 15.6 36.1 23.3 56.6 23.3s41-7.8 56.6-23.3l63.6-63.6c31.1-31.1 31.1-82 0-113.1L846.7 670c5.1-10.7 9.6-21.7 13.6-32.9H880c44 0 80-36 80-80v-90c0-44-36-80-80-80h-19.7c-4-11.2-8.6-22.2-13.6-32.9l13.9-13.9c31.1-31.1 31.1-82 0-113.1L797 163.4c-15.6-15.6-36.1-23.3-56.6-23.3s-41 7.8-56.6 23.3l-13.9 13.9c-10.7-5.1-21.7-9.6-32.9-13.6V144c0-44-36-80-80-80z" fill="#3A3644" /><path d="M512 536m-205 0a205 205 0 1 0 410 0 205 205 0 1 0-410 0Z" fill="#BCBCBC" /><path d="M512 687c-96.5 0-175-78.5-175-175s78.5-175 175-175 175 78.5 175 175-78.5 175-175 175z" fill="#F8A77B" /><path d="M512 362c40.1 0 77.7 15.6 106.1 43.9 28.3 28.3 43.9 66 43.9 106.1s-15.6 77.7-43.9 106.1c-28.3 28.3-66 43.9-106.1 43.9s-77.7-15.6-106.1-43.9c-28.3-28.3-43.9-66-43.9-106.1s15.6-77.7 43.9-106.1S471.9 362 512 362m0-50c-110.5 0-200 89.5-200 200s89.5 200 200 200 200-89.5 200-200-89.5-200-200-200z" fill="#3A3644" /></svg>